<svg xmlns="http://www.w3.org/2000/svg" xmlns:xlink="http://www.w3.org/1999/xlink" width="1024" zoomAndPan="magnify" viewBox="0 0 768 767.999994" height="1024" preserveAspectRatio="xMidYMid meet" version="1.0"><defs><filter x="0%" y="0%" width="100%" height="100%" id="688b0bc9c6"><feColorMatrix values="0 0 0 0 1 0 0 0 0 1 0 0 0 0 1 0 0 0 1 0" color-interpolation-filters="sRGB"/></filter><mask id="2b913f2c3b"><g filter="url(#688b0bc9c6)"><rect x="-76.8" width="921.6" fill="#000000" y="-76.799999" height="921.599993" fill-opacity="0.26"/></g></mask><clipPath id="e73d56857b"><path d="M 619 1.046875 L 768 1.046875 L 768 766.796875 L 619 766.796875 Z M 619 1.046875 " clip-rule="nonzero"/></clipPath><clipPath id="6f4b9dcd68"><path d="M 0 1.046875 L 767 1.046875 L 767 766.796875 L 0 766.796875 Z M 0 1.046875 " clip-rule="nonzero"/></clipPath><clipPath id="0e8e730837"><path d="M 0 619 L 148 619 L 148 766.796875 L 0 766.796875 Z M 0 619 " clip-rule="nonzero"/></clipPath><clipPath id="08cf240df0"><path d="M 0 1.046875 L 147 1.046875 L 147 150 L 0 150 Z M 0 1.046875 " clip-rule="nonzero"/></clipPath><clipPath id="626df70f56"><rect x="0" width="768" y="0" height="768"/></clipPath></defs><rect x="-76.8" width="921.6" fill="#ffffff" y="-76.799999" height="921.599993" fill-opacity="1"/><rect x="-76.8" width="921.6" fill="#ffffff" y="-76.799999" height="921.599993" fill-opacity="1"/><g mask="url(#2b913f2c3b)"><g transform="matrix(1, 0, 0, 1, 0, -0.000000000000057399)"><g clip-path="url(#626df70f56)"><g clip-path="url(#e73d56857b)"><path fill="#ffffff" d="M 2077.445312 561.886719 C 2077.445312 630.332031 2077.445312 698.777344 2077.445312 767.257812 C 1591.480469 767.257812 1105.519531 767.257812 619.359375 766.980469 C 626.882812 765.65625 634.71875 765.125 642.304688 763.460938 C 658.203125 759.96875 673.152344 753.835938 687.265625 745.683594 C 705.539062 735.136719 720.878906 721.15625 733.75 704.636719 C 745.152344 690.007812 753.550781 673.578125 759 655.796875 C 763.445312 641.277344 766.085938 626.460938 766.078125 611.15625 C 766 461.664062 766.019531 312.167969 766.054688 162.671875 C 766.058594 153.296875 765.574219 144.023438 764.046875 134.730469 C 761.5625 119.605469 757.011719 105.183594 750.328125 91.480469 C 745.214844 80.988281 738.847656 71.253906 731.59375 62.023438 C 723.230469 51.378906 713.660156 42.070312 702.945312 33.949219 C 692.042969 25.6875 680.277344 18.851562 667.523438 13.738281 C 655.011719 8.726562 642.175781 5.027344 628.78125 3.34375 C 625.949219 2.988281 623.140625 2.4375 620.320312 1.972656 C 1105.949219 1.972656 1591.578125 1.972656 2077.445312 1.972656 C 2077.445312 84.328125 2077.445312 166.6875 2077.117188 249.355469 C 2054.867188 249.667969 2032.941406 249.667969 2010.714844 249.667969 C 2010.714844 261.382812 2010.714844 272.722656 2010.714844 283.660156 C 2006.011719 279.492188 2001.363281 275.210938 1996.539062 271.136719 C 1985.214844 261.566406 1972.398438 254.664062 1958.496094 249.511719 C 1945.933594 244.855469 1932.929688 242.269531 1919.71875 241.515625 C 1905.210938 240.691406 1890.554688 240.648438 1876.199219 243.527344 C 1861.035156 246.566406 1846.535156 251.59375 1833.015625 259.355469 C 1815.476562 269.429688 1800.707031 282.707031 1787.933594 298.183594 C 1778.191406 309.984375 1770.589844 323.191406 1764.664062 337.335938 C 1757.261719 355.007812 1753.144531 373.511719 1752.179688 392.539062 C 1751.464844 406.582031 1751.773438 420.671875 1753.976562 434.710938 C 1756.210938 448.960938 1759.890625 462.742188 1765.664062 475.871094 C 1774.695312 496.417969 1787.53125 514.335938 1804.015625 529.695312 C 1811.921875 537.0625 1820.21875 543.792969 1829.414062 549.425781 C 1841.011719 556.527344 1853.316406 562.070312 1866.53125 565.269531 C 1873.394531 566.929688 1880.453125 567.867188 1887.472656 568.769531 C 1893.335938 569.523438 1899.265625 570.070312 1905.171875 570.113281 C 1909.914062 570.148438 1914.695312 569.519531 1919.398438 568.773438 C 1926.929688 567.582031 1934.511719 566.464844 1941.886719 564.570312 C 1958.109375 560.40625 1973.375 553.796875 1987.296875 544.457031 C 1995.382812 539.035156 2002.980469 532.886719 2010.957031 526.945312 C 2010.957031 538.515625 2010.957031 550.121094 2010.957031 561.886719 C 2033.300781 561.886719 2055.371094 561.886719 2077.445312 561.886719 M 1166.0625 310.707031 C 1157.789062 323.152344 1151.777344 336.609375 1147.300781 350.871094 C 1141.941406 367.960938 1139.988281 385.523438 1139.445312 403.265625 C 1139.222656 410.535156 1140.003906 417.867188 1140.785156 425.121094 C 1141.644531 433.066406 1142.585938 441.054688 1144.28125 448.851562 C 1148.257812 467.121094 1155.347656 484.144531 1165.609375 499.863281 C 1174.269531 513.128906 1184.515625 524.988281 1196.808594 534.886719 C 1204.304688 540.917969 1212.273438 546.492188 1220.566406 551.363281 C 1234.425781 559.503906 1249.519531 564.894531 1265.292969 567.871094 C 1275.160156 569.734375 1285.222656 570.832031 1295.25 571.460938 C 1302.898438 571.9375 1310.648438 571.453125 1318.308594 570.816406 C 1325.257812 570.238281 1332.226562 569.265625 1339.039062 567.785156 C 1354.039062 564.523438 1368.328125 559.265625 1381.765625 551.6875 C 1391.425781 546.234375 1400.390625 539.863281 1408.527344 532.378906 C 1420.285156 521.5625 1430.046875 509.140625 1437.769531 494.925781 C 1436.921875 494.375 1436.132812 493.746094 1435.25 493.300781 C 1419.472656 485.316406 1403.648438 477.425781 1387.945312 469.308594 C 1385.484375 468.039062 1384.183594 468.417969 1382.46875 470.300781 C 1377.964844 475.246094 1373.714844 480.574219 1368.550781 484.734375 C 1361.945312 490.050781 1354.914062 495.09375 1347.390625 498.941406 C 1337.625 503.933594 1327.054688 506.808594 1315.9375 507.917969 C 1305.707031 508.9375 1295.574219 508.753906 1285.59375 506.90625 C 1272.8125 504.539062 1260.65625 500.195312 1249.378906 493.429688 C 1241.347656 488.613281 1234.390625 482.585938 1228.425781 475.566406 C 1221.574219 467.503906 1216.796875 458.074219 1213.273438 448.097656 C 1211.808594 443.945312 1210.875 439.601562 1209.554688 434.816406 C 1291.417969 434.816406 1372.507812 434.816406 1453.507812 434.816406 C 1454.277344 428.027344 1455.425781 421.625 1455.65625 415.1875 C 1456.21875 399.304688 1455.472656 383.492188 1452.316406 367.828125 C 1449.613281 354.417969 1445.632812 341.472656 1439.839844 329.066406 C 1433.828125 316.1875 1426.785156 303.945312 1417.167969 293.414062 C 1409.929688 285.488281 1402.796875 277.324219 1394.644531 270.410156 C 1385.105469 262.316406 1374.269531 255.96875 1362.640625 250.941406 C 1346.765625 244.082031 1330.175781 240.320312 1313.089844 239.460938 C 1301.460938 238.875 1289.667969 239.5625 1278.074219 240.835938 C 1268.214844 241.921875 1258.359375 244.054688 1248.816406 246.804688 C 1231.222656 251.875 1215.394531 260.542969 1201.117188 272.117188 C 1187.574219 283.097656 1175.816406 295.621094 1166.0625 310.707031 M 1518.210938 251.941406 C 1517.1875 248.90625 1516.164062 245.871094 1515.164062 242.90625 C 1489.996094 242.90625 1464.960938 242.90625 1439.574219 242.90625 C 1440.40625 244.5625 1441.1875 245.90625 1441.777344 247.328125 C 1447.832031 261.9375 1453.796875 276.585938 1459.90625 291.175781 C 1466.273438 306.390625 1472.796875 321.542969 1479.203125 336.742188 C 1487.078125 355.425781 1494.816406 374.171875 1502.777344 392.816406 C 1510.484375 410.859375 1518.316406 428.851562 1526.253906 446.792969 C 1534.328125 465.046875 1542.488281 483.265625 1550.824219 501.402344 C 1557.09375 515.046875 1562.875 528.734375 1564.828125 543.863281 C 1566.144531 554.074219 1565.195312 563.773438 1560.816406 572.945312 C 1553.3125 588.667969 1540.535156 599.269531 1525.703125 607.691406 C 1517.359375 612.425781 1508.25 614.976562 1498.90625 616.828125 C 1498.90625 640.402344 1498.90625 663.816406 1498.90625 687.222656 C 1501.390625 686.828125 1503.730469 686.417969 1506.078125 686.09375 C 1520.015625 684.179688 1533.3125 680.074219 1546.171875 674.449219 C 1565.460938 666.015625 1581.832031 653.371094 1596.824219 638.878906 C 1602.210938 633.671875 1606.839844 627.675781 1611.761719 621.992188 C 1621.730469 610.480469 1630.09375 597.8125 1636.902344 584.261719 C 1644.417969 569.304688 1651.714844 554.179688 1658.03125 538.691406 C 1668.078125 514.046875 1677.542969 489.152344 1686.679688 464.15625 C 1694.324219 443.230469 1701.15625 422.007812 1708.320312 400.910156 C 1716.882812 375.6875 1725.375 350.441406 1733.976562 325.230469 C 1741.03125 304.5625 1748.1875 283.933594 1755.324219 263.296875 C 1757.667969 256.515625 1760.097656 249.769531 1762.554688 242.804688 C 1737.84375 242.804688 1713.574219 242.804688 1689.230469 242.804688 C 1686.105469 251.621094 1682.917969 260.394531 1679.882812 269.214844 C 1673.105469 288.917969 1666.453125 308.660156 1659.65625 328.355469 C 1655.148438 341.414062 1650.410156 354.398438 1645.898438 367.457031 C 1636.363281 395.046875 1626.902344 422.664062 1617.425781 450.273438 C 1615.078125 457.109375 1612.78125 463.960938 1610.285156 471.328125 C 1608.964844 468.65625 1607.917969 466.683594 1607 464.652344 C 1598.542969 445.953125 1590.0625 427.261719 1581.6875 408.523438 C 1575.953125 395.699219 1570.203125 382.878906 1564.777344 369.921875 C 1558.535156 355.027344 1552.605469 340.003906 1546.609375 325.007812 C 1541.070312 311.148438 1535.550781 297.28125 1530.152344 283.367188 C 1526.160156 273.09375 1522.378906 262.738281 1518.210938 251.941406 M 1083.164062 571.296875 C 1092.398438 571.398438 1101.628906 571.507812 1110.859375 571.597656 C 1114.054688 571.625 1117.25 571.601562 1120.394531 571.601562 C 1120.394531 549.1875 1120.394531 527.171875 1120.394531 505.335938 C 1112.742188 504.984375 1105.300781 504.636719 1097.859375 504.300781 C 1090.027344 503.953125 1082.582031 501.902344 1075.503906 498.710938 C 1056.722656 490.238281 1045.234375 475.304688 1037.945312 456.449219 C 1030.96875 438.390625 1029.632812 419.421875 1029.199219 400.515625 C 1028.492188 369.777344 1029.007812 339.007812 1029.015625 308.25 C 1029.015625 307.257812 1029.121094 306.265625 1029.191406 305.007812 C 1059.796875 305.007812 1090.144531 305.007812 1120.367188 305.007812 C 1120.367188 283.164062 1120.367188 261.609375 1120.367188 239.769531 C 1089.792969 239.769531 1059.445312 239.769531 1028.84375 239.769531 C 1028.84375 208.214844 1028.84375 176.949219 1028.84375 145.335938 C 1027.785156 145.726562 1027.082031 146.0625 1026.34375 146.246094 C 1004.828125 151.585938 984.289062 159.5625 964.222656 168.898438 C 961.519531 170.15625 960.957031 171.640625 960.960938 174.320312 C 961.019531 245.773438 960.945312 317.230469 961.070312 388.6875 C 961.089844 400.488281 961.671875 412.304688 962.464844 424.082031 C 963.304688 436.539062 964.429688 448.992188 965.945312 461.382812 C 967.398438 473.292969 970.644531 484.796875 975.554688 495.796875 C 983.273438 513.101562 994.402344 527.699219 1009.136719 539.710938 C 1022.058594 550.242188 1036.40625 558.042969 1051.992188 563.636719 C 1061.914062 567.199219 1072.035156 570.105469 1083.164062 571.296875 Z M 1083.164062 571.296875 " fill-opacity="1" fill-rule="nonzero"/></g><g clip-path="url(#6f4b9dcd68)"><path fill="#151515" d="M 619.992188 1.972656 C 623.140625 2.4375 625.949219 2.988281 628.78125 3.34375 C 642.175781 5.027344 655.011719 8.726562 667.523438 13.738281 C 680.277344 18.851562 692.042969 25.6875 702.945312 33.949219 C 713.660156 42.070312 723.230469 51.378906 731.59375 62.023438 C 738.847656 71.253906 745.214844 80.988281 750.328125 91.480469 C 757.011719 105.183594 761.5625 119.605469 764.046875 134.730469 C 765.574219 144.023438 766.058594 153.296875 766.054688 162.671875 C 766.019531 312.167969 766 461.664062 766.078125 611.15625 C 766.085938 626.460938 763.445312 641.277344 759 655.796875 C 753.550781 673.578125 745.152344 690.007812 733.75 704.636719 C 720.878906 721.15625 705.539062 735.136719 687.265625 745.683594 C 673.152344 753.835938 658.203125 759.96875 642.304688 763.460938 C 634.71875 765.125 626.882812 765.65625 619.046875 766.980469 C 462.101562 767.257812 305.273438 767.257812 148.003906 766.980469 C 141.621094 765.964844 135.640625 765.453125 129.742188 764.4375 C 117.15625 762.273438 105.109375 758.242188 93.527344 752.894531 C 82.617188 747.859375 72.515625 741.519531 62.894531 734.253906 C 53.054688 726.828125 44.242188 718.359375 36.546875 708.898438 C 26.21875 696.191406 17.75 682.21875 11.8125 666.84375 C 7.042969 654.488281 3.585938 641.808594 2.0625 628.621094 C 1.710938 625.5625 1.15625 622.523438 0.695312 619.476562 C 0.695312 463.121094 0.695312 306.761719 0.972656 149.96875 C 1.996094 142.890625 2.164062 136.125 3.605469 129.640625 C 7.292969 113.039062 12.964844 97.140625 21.46875 82.265625 C 31.226562 65.203125 43.820312 50.589844 58.769531 38.003906 C 71.097656 27.625 84.933594 19.582031 99.851562 13.511719 C 112.320312 8.4375 125.207031 4.808594 138.644531 3.335938 C 141.25 3.050781 143.820312 2.4375 146.40625 1.972656 C 304.160156 1.972656 461.914062 1.972656 619.992188 1.972656 M 321.257812 437.382812 C 319.921875 450.464844 317.675781 463.527344 317.429688 476.628906 C 316.851562 507.488281 317.222656 538.367188 317.210938 569.238281 C 317.210938 570.582031 317.210938 571.925781 317.210938 573.40625 C 361.535156 573.40625 405.417969 573.40625 449.503906 573.40625 C 449.570312 572.367188 449.675781 571.472656 449.675781 570.582031 C 449.683594 542.140625 449.660156 513.699219 449.691406 485.253906 C 449.714844 466.472656 452.890625 448.234375 459.582031 430.671875 C 472.609375 396.457031 494.753906 369.679688 526.035156 350.703125 C 547.550781 337.648438 570.871094 329.890625 596.199219 328.738281 C 599.816406 328.574219 603.417969 328.074219 606.9375 327.738281 C 606.9375 283.632812 606.9375 239.65625 606.9375 195.398438 C 598.914062 195.921875 591.144531 196.285156 583.40625 196.96875 C 574.746094 197.738281 566.027344 198.328125 557.484375 199.828125 C 541.140625 202.707031 525.054688 206.78125 509.476562 212.589844 C 435.066406 240.339844 380.207031 289.8125 345.5 361.234375 C 338.984375 374.636719 333.765625 388.773438 329.136719 402.957031 C 325.5625 413.917969 323.847656 425.484375 321.257812 437.382812 M 218.863281 339.886719 C 247.273438 351.699219 270.40625 370.160156 288.496094 395.488281 C 289.140625 393.558594 289.660156 391.949219 290.214844 390.351562 C 293.183594 381.765625 295.863281 373.0625 299.1875 364.613281 C 312.0625 331.882812 329.757812 301.964844 352.171875 274.84375 C 355.230469 271.144531 355.203125 271.105469 351.542969 267.898438 C 330.511719 249.46875 307.414062 234.195312 282.023438 222.433594 C 266.433594 215.214844 250.445312 209.082031 233.652344 205.246094 C 226.222656 203.546875 218.8125 201.714844 211.316406 200.375 C 203.40625 198.960938 195.417969 197.960938 187.4375 196.980469 C 183.46875 196.492188 179.441406 196.460938 175.445312 196.21875 C 170.210938 195.902344 164.980469 195.582031 159.664062 195.257812 C 159.664062 240.078125 159.664062 284.292969 159.664062 327.824219 C 169.835938 329.058594 179.855469 329.652344 189.59375 331.632812 C 199.328125 333.613281 208.773438 336.984375 218.863281 339.886719 Z M 218.863281 339.886719 " fill-opacity="1" fill-rule="nonzero"/></g><g clip-path="url(#0e8e730837)"><path fill="#ffffff" d="M 0.695312 619.800781 C 1.15625 622.523438 1.710938 625.5625 2.0625 628.621094 C 3.585938 641.808594 7.042969 654.488281 11.8125 666.84375 C 17.75 682.21875 26.21875 696.191406 36.546875 708.898438 C 44.242188 718.359375 53.054688 726.828125 62.894531 734.253906 C 72.515625 741.519531 82.617188 747.859375 93.527344 752.894531 C 105.109375 758.242188 117.15625 762.273438 129.742188 764.4375 C 135.640625 765.453125 141.621094 765.964844 147.679688 766.980469 C 98.8125 767.257812 49.828125 767.257812 0.695312 767.257812 C 0.695312 718.214844 0.695312 669.167969 0.695312 619.800781 Z M 0.695312 619.800781 " fill-opacity="1" fill-rule="nonzero"/></g><g clip-path="url(#08cf240df0)"><path fill="#ffffff" d="M 146.082031 1.972656 C 143.820312 2.4375 141.25 3.050781 138.644531 3.335938 C 125.207031 4.808594 112.320312 8.4375 99.851562 13.511719 C 84.933594 19.582031 71.097656 27.625 58.769531 38.003906 C 43.820312 50.589844 31.226562 65.203125 21.46875 82.265625 C 12.964844 97.140625 7.292969 113.039062 3.605469 129.640625 C 2.164062 136.125 1.996094 142.890625 0.972656 149.640625 C 0.695312 100.546875 0.695312 51.335938 0.695312 1.972656 C 49.046875 1.972656 97.402344 1.972656 146.082031 1.972656 Z M 146.082031 1.972656 " fill-opacity="1" fill-rule="nonzero"/></g><path fill="#dde048" d="M 321.28125 437.082031 C 323.847656 425.484375 325.5625 413.917969 329.136719 402.957031 C 333.765625 388.773438 338.984375 374.636719 345.5 361.234375 C 380.207031 289.8125 435.066406 240.339844 509.476562 212.589844 C 525.054688 206.78125 541.140625 202.707031 557.484375 199.828125 C 566.027344 198.328125 574.746094 197.738281 583.40625 196.96875 C 591.144531 196.285156 598.914062 195.921875 606.9375 195.398438 C 606.9375 239.65625 606.9375 283.632812 606.9375 327.738281 C 603.417969 328.074219 599.816406 328.574219 596.199219 328.738281 C 570.871094 329.890625 547.550781 337.648438 526.035156 350.703125 C 494.753906 369.679688 472.609375 396.457031 459.582031 430.671875 C 452.890625 448.234375 449.714844 466.472656 449.691406 485.253906 C 449.660156 513.699219 449.683594 542.140625 449.675781 570.582031 C 449.675781 571.472656 449.570312 572.367188 449.503906 573.40625 C 405.417969 573.40625 361.535156 573.40625 317.210938 573.40625 C 317.210938 571.925781 317.210938 570.582031 317.210938 569.238281 C 317.222656 538.367188 316.851562 507.488281 317.429688 476.628906 C 317.675781 463.527344 319.921875 450.464844 321.28125 437.082031 Z M 321.28125 437.082031 " fill-opacity="1" fill-rule="nonzero"/><path fill="#ffffff" d="M 218.605469 339.816406 C 208.773438 336.984375 199.328125 333.613281 189.59375 331.632812 C 179.855469 329.652344 169.835938 329.058594 159.664062 327.824219 C 159.664062 284.292969 159.664062 240.078125 159.664062 195.257812 C 164.980469 195.582031 170.210938 195.902344 175.445312 196.21875 C 179.441406 196.460938 183.46875 196.492188 187.4375 196.980469 C 195.417969 197.960938 203.40625 198.960938 211.316406 200.375 C 218.8125 201.714844 226.222656 203.546875 233.652344 205.246094 C 250.445312 209.082031 266.433594 215.214844 282.023438 222.433594 C 307.414062 234.195312 330.511719 249.46875 351.542969 267.898438 C 355.203125 271.105469 355.230469 271.144531 352.171875 274.84375 C 329.757812 301.964844 312.0625 331.882812 299.1875 364.613281 C 295.863281 373.0625 293.183594 381.765625 290.214844 390.351562 C 289.660156 391.949219 289.140625 393.558594 288.496094 395.488281 C 270.40625 370.160156 247.273438 351.699219 218.605469 339.816406 Z M 218.605469 339.816406 " fill-opacity="1" fill-rule="nonzero"/></g></g></g></svg>